<?xml version="1.0" encoding="UTF-8"?><svg xmlns="http://www.w3.org/2000/svg" xmlns:xlink="http://www.w3.org/1999/xlink" contentScriptType="text/ecmascript" width="1440" zoomAndPan="magnify" contentStyleType="text/css" viewBox="0 0 1440 809.999993" height="809.999993" preserveAspectRatio="xMidYMid meet" version="1.0"><defs><clipPath id="clip-0"><path d="M 0 0 L 395.425781 0 L 395.425781 188 L 0 188 Z M 0 0 " clip-rule="nonzero"/></clipPath><clipPath id="clip-1"><path d="M 971.414062 0 L 1440 0 L 1440 188 L 971.414062 188 Z M 971.414062 0 " clip-rule="nonzero"/></clipPath><clipPath id="clip-2"><path d="M 629 0 L 1398.3125 0 L 1398.3125 188 L 629 188 Z M 629 0 " clip-rule="nonzero"/></clipPath><clipPath id="clip-3"><path d="M 289.105469 0 L 1058.605469 0 L 1058.605469 188 L 289.105469 188 Z M 289.105469 0 " clip-rule="nonzero"/></clipPath><clipPath id="clip-4"><path d="M 0 0 L 728.082031 0 L 728.082031 188 L 0 188 Z M 0 0 " clip-rule="nonzero"/></clipPath></defs><g clip-path="url(#clip-0)"><path fill="rgb(34.118652%, 61.178589%, 87.838745%)" d="M -361.914062 -197.226562 C -361.914062 -157.058594 -381.921875 -114.429688 -369.609375 -78.261719 C -356.988281 -40.710938 -314.207031 -17.625 -290.660156 13.617188 C -266.804688 45.164062 -256.953125 91.179688 -224.171875 114.113281 C -191.699219 136.734375 -143.222656 131.65625 -104.285156 143.96875 C -66.582031 155.664062 -30.722656 187.675781 10.984375 187.675781 C 52.691406 187.675781 88.703125 155.820312 126.257812 143.96875 C 165.191406 131.8125 213.824219 136.890625 246.296875 114.113281 C 279.078125 91.179688 288.929688 45.164062 312.785156 13.617188 C 336.484375 -17.625 379.113281 -40.710938 391.886719 -78.261719 C 404.046875 -114.429688 384.191406 -157.058594 384.191406 -197.226562 C 384.191406 -237.394531 404.199219 -280.027344 391.886719 -316.191406 C 379.269531 -353.742188 336.484375 -376.828125 312.9375 -408.070312 C 289.082031 -439.621094 279.234375 -485.636719 246.453125 -508.566406 C 213.980469 -531.34375 165.5 -526.265625 126.410156 -538.421875 C 88.703125 -550.121094 52.847656 -582.132812 11.140625 -582.132812 C -30.566406 -582.132812 -66.582031 -550.273438 -104.132812 -538.421875 C -143.070312 -526.265625 -191.699219 -531.34375 -224.171875 -508.566406 C -256.953125 -485.636719 -266.804688 -439.621094 -290.660156 -408.070312 C -314.359375 -376.828125 -356.988281 -353.742188 -369.609375 -316.191406 C -381.921875 -279.871094 -361.914062 -237.242188 -361.914062 -197.226562 Z M -361.914062 -197.226562 " fill-opacity="1" fill-rule="nonzero"/></g><g clip-path="url(#clip-1)"><path fill="rgb(34.118652%, 61.178589%, 87.838745%)" d="M 983.574219 -197.226562 C 983.574219 -157.058594 963.566406 -114.429688 975.878906 -78.261719 C 988.5 -40.710938 1031.28125 -17.625 1054.828125 13.617188 C 1078.683594 45.164062 1088.535156 91.179688 1121.3125 114.113281 C 1153.785156 136.734375 1202.265625 131.65625 1241.203125 143.96875 C 1278.90625 155.664062 1314.765625 187.675781 1356.472656 187.675781 C 1398.179688 187.675781 1434.191406 155.820312 1471.746094 143.96875 C 1510.679688 131.8125 1559.3125 136.890625 1591.785156 114.113281 C 1624.566406 91.179688 1634.417969 45.164062 1658.269531 13.617188 C 1681.972656 -17.625 1724.601562 -40.710938 1737.375 -78.261719 C 1749.535156 -114.429688 1729.679688 -157.058594 1729.679688 -197.226562 C 1729.679688 -237.394531 1749.6875 -280.027344 1737.375 -316.191406 C 1724.757812 -353.742188 1681.972656 -376.828125 1658.425781 -408.070312 C 1634.570312 -439.621094 1624.722656 -485.636719 1591.941406 -508.566406 C 1559.46875 -531.34375 1510.988281 -526.265625 1471.898438 -538.421875 C 1434.191406 -550.121094 1398.332031 -582.132812 1356.628906 -582.132812 C 1314.921875 -582.132812 1278.90625 -550.273438 1241.355469 -538.421875 C 1202.417969 -526.265625 1153.785156 -531.34375 1121.3125 -508.566406 C 1088.535156 -485.636719 1078.683594 -439.621094 1054.828125 -408.070312 C 1031.128906 -376.828125 988.5 -353.742188 975.878906 -316.191406 C 963.566406 -279.871094 983.574219 -237.242188 983.574219 -197.226562 Z M 983.574219 -197.226562 " fill-opacity="1" fill-rule="nonzero"/></g><g clip-path="url(#clip-2)"><path fill="rgb(34.118652%, 61.178589%, 87.838745%)" d="M 640.96875 -197.226562 C 640.96875 -157.058594 620.960938 -114.429688 633.273438 -78.261719 C 645.894531 -40.710938 688.679688 -17.625 712.226562 13.617188 C 736.078125 45.164062 745.929688 91.179688 778.710938 114.113281 C 811.183594 136.734375 859.660156 131.65625 898.597656 143.96875 C 936.304688 155.664062 972.164062 187.675781 1013.871094 187.675781 C 1055.578125 187.675781 1091.589844 155.820312 1129.140625 143.96875 C 1168.078125 131.8125 1216.710938 136.890625 1249.183594 114.113281 C 1281.964844 91.179688 1291.8125 45.164062 1315.667969 13.617188 C 1339.367188 -17.625 1382 -40.710938 1394.773438 -78.261719 C 1406.929688 -114.429688 1387.078125 -157.058594 1387.078125 -197.226562 C 1387.078125 -237.394531 1407.082031 -280.027344 1394.773438 -316.191406 C 1382.152344 -353.742188 1339.367188 -376.828125 1315.820312 -408.070312 C 1291.964844 -439.621094 1282.117188 -485.636719 1249.335938 -508.566406 C 1216.863281 -531.34375 1168.386719 -526.265625 1129.292969 -538.421875 C 1091.589844 -550.121094 1055.730469 -582.132812 1014.023438 -582.132812 C 972.316406 -582.132812 936.304688 -550.273438 898.753906 -538.421875 C 859.816406 -526.265625 811.183594 -531.34375 778.710938 -508.566406 C 745.929688 -485.636719 736.078125 -439.621094 712.226562 -408.070312 C 688.523438 -376.828125 645.894531 -353.742188 633.273438 -316.191406 C 620.960938 -279.871094 640.96875 -237.242188 640.96875 -197.226562 Z M 640.96875 -197.226562 " fill-opacity="1" fill-rule="nonzero"/></g><g clip-path="url(#clip-3)"><path fill="rgb(34.118652%, 61.178589%, 87.838745%)" d="M 301.265625 -197.226562 C 301.265625 -157.058594 281.257812 -114.429688 293.570312 -78.261719 C 306.191406 -40.710938 348.972656 -17.625 372.519531 13.617188 C 396.375 45.164062 406.226562 91.179688 439.003906 114.113281 C 471.476562 136.734375 519.957031 131.65625 558.894531 143.96875 C 596.597656 155.664062 632.457031 187.675781 674.164062 187.675781 C 715.871094 187.675781 751.882812 155.820312 789.4375 143.96875 C 828.371094 131.8125 877.003906 136.890625 909.476562 114.113281 C 942.257812 91.179688 952.109375 45.164062 975.960938 13.617188 C 999.664062 -17.625 1042.292969 -40.710938 1055.066406 -78.261719 C 1067.226562 -114.429688 1047.371094 -157.058594 1047.371094 -197.226562 C 1047.371094 -237.394531 1067.378906 -280.027344 1055.066406 -316.191406 C 1042.449219 -353.742188 999.664062 -376.828125 976.117188 -408.070312 C 952.261719 -439.621094 942.414062 -485.636719 909.632812 -508.566406 C 877.160156 -531.34375 828.679688 -526.265625 789.589844 -538.421875 C 751.882812 -550.121094 716.023438 -582.132812 674.320312 -582.132812 C 632.613281 -582.132812 596.597656 -550.273438 559.046875 -538.421875 C 520.109375 -526.265625 471.476562 -531.34375 439.003906 -508.566406 C 406.226562 -485.636719 396.375 -439.621094 372.519531 -408.070312 C 348.820312 -376.828125 306.191406 -353.742188 293.570312 -316.191406 C 281.257812 -279.871094 301.265625 -237.242188 301.265625 -197.226562 Z M 301.265625 -197.226562 " fill-opacity="1" fill-rule="nonzero"/></g><g clip-path="url(#clip-4)"><path fill="rgb(34.118652%, 61.178589%, 87.838745%)" d="M -29.257812 -197.226562 C -29.257812 -157.058594 -49.265625 -114.429688 -36.953125 -78.261719 C -24.332031 -40.710938 18.449219 -17.625 41.996094 13.617188 C 65.851562 45.164062 75.703125 91.179688 108.480469 114.113281 C 140.953125 136.734375 189.433594 131.65625 228.371094 143.96875 C 266.074219 155.664062 301.933594 187.675781 343.640625 187.675781 C 385.347656 187.675781 421.359375 155.820312 458.914062 143.96875 C 497.847656 131.8125 546.480469 136.890625 578.953125 114.113281 C 611.734375 91.179688 621.585938 45.164062 645.4375 13.617188 C 669.140625 -17.625 711.769531 -40.710938 724.542969 -78.261719 C 736.703125 -114.429688 716.847656 -157.058594 716.847656 -197.226562 C 716.847656 -237.394531 736.855469 -280.027344 724.542969 -316.191406 C 711.925781 -353.742188 669.140625 -376.828125 645.59375 -408.070312 C 621.738281 -439.621094 611.890625 -485.636719 579.109375 -508.566406 C 546.636719 -531.34375 498.15625 -526.265625 459.066406 -538.421875 C 421.359375 -550.121094 385.503906 -582.132812 343.796875 -582.132812 C 302.089844 -582.132812 266.074219 -550.273438 228.523438 -538.421875 C 189.585938 -526.265625 140.953125 -531.34375 108.480469 -508.566406 C 75.703125 -485.636719 65.851562 -439.621094 41.996094 -408.070312 C 18.296875 -376.828125 -24.332031 -353.742188 -36.953125 -316.191406 C -49.265625 -279.871094 -29.257812 -237.242188 -29.257812 -197.226562 Z M -29.257812 -197.226562 " fill-opacity="1" fill-rule="nonzero"/></g></svg>