<svg xmlns="http://www.w3.org/2000/svg" width="1440" viewBox="0 0 1440 810" height="810" version="1.0"><defs><clipPath id="a"><path d="M 102 261.25 L 168 261.25 L 168 514 L 102 514 Z M 102 261.25"/></clipPath><clipPath id="b"><path d="M 161 477 L 178 477 L 178 548.5 L 161 548.5 Z M 161 477"/></clipPath><clipPath id="c"><path d="M 1151.523438 272 L 1388.523438 272 L 1388.523438 538.589844 L 1151.523438 538.589844 Z M 1151.523438 272"/></clipPath><clipPath id="d"><path d="M 762 279.019531 L 1037 279.019531 L 1037 530 L 762 530 Z M 762 279.019531"/></clipPath></defs><path fill="#545454" d="M 166.125 238.792969 C 74.375 238.792969 0 313.171875 0 404.917969 C 0 496.667969 74.375 571.042969 166.125 571.042969 C 257.875 571.042969 332.25 496.667969 332.25 404.917969 C 332.25 313.171875 257.875 238.792969 166.125 238.792969"/><path fill="#599636" d="M 165.824219 262.03125 L 173.503906 276.429688 C 175.230469 279.085938 177.101562 281.4375 179.304688 283.628906 C 185.734375 290.046875 191.84375 296.769531 197.328125 303.96875 C 210.34375 321.023438 219.121094 339.964844 225.386719 360.449219 C 229.148438 372.960938 231.1875 385.796875 231.34375 398.777344 C 231.972656 437.585938 218.644531 470.90625 191.769531 498.597656 C 187.382812 502.976562 182.6875 507.035156 177.648438 510.644531 C 174.988281 510.644531 173.730469 508.605469 172.632812 506.730469 C 170.589844 503.292969 169.339844 499.371094 168.710938 495.464844 C 167.765625 490.769531 167.144531 486.074219 167.453125 481.226562 L 167.453125 479.039062 C 167.234375 478.570312 164.886719 263.132812 165.824219 262.03125 Z M 165.824219 262.03125"/><g clip-path="url(#a)"><path fill="#6CAC48" d="M 165.824219 261.554688 C 165.507812 260.925781 165.195312 261.402344 164.878906 261.707031 C 165.03125 264.847656 163.933594 267.648438 162.21875 270.324219 C 160.328125 272.980469 157.828125 275.019531 155.320312 277.207031 C 141.378906 289.253906 130.40625 303.804688 121.621094 320.082031 C 109.929688 341.984375 103.902344 365.457031 102.195312 390.167969 C 101.410156 399.082031 105.019531 430.539062 107.832031 439.613281 C 115.511719 463.707031 129.308594 483.894531 147.179688 501.417969 C 151.570312 505.636719 156.261719 509.550781 161.121094 513.308594 C 162.53125 513.308594 162.683594 512.054688 163.007812 511.121094 C 163.628906 509.121094 164.097656 507.085938 164.421875 505.015625 L 167.570312 481.550781 Z M 165.824219 261.554688"/></g><g clip-path="url(#b)"><path fill="#C2BFBF" d="M 173.503906 520.175781 C 173.820312 516.585938 175.546875 513.605469 177.425781 510.636719 C 175.535156 509.855469 174.132812 508.300781 173.035156 506.570312 C 172.09375 505.007812 171.308594 503.132812 170.699219 501.40625 C 168.503906 494.835938 168.035156 487.941406 167.40625 481.226562 L 167.40625 477.160156 C 166.625 477.789062 166.460938 483.105469 166.460938 483.894531 C 166.003906 491 165.0625 498.039062 163.636719 505.015625 C 163.171875 507.835938 162.855469 510.644531 161.121094 513.148438 C 161.121094 513.464844 161.121094 513.777344 161.273438 514.242188 C 164.097656 522.539062 164.871094 530.984375 165.347656 539.59375 L 165.347656 542.734375 C 165.347656 546.488281 165.195312 545.699219 168.316406 546.953125 C 169.574219 547.421875 170.976562 547.582031 172.234375 548.515625 C 173.179688 548.515625 173.332031 547.734375 173.332031 547.105469 L 172.867188 541.945312 L 172.867188 527.546875 C 172.710938 525.035156 173.179688 522.539062 173.496094 520.1875 Z M 173.503906 520.175781"/></g><path fill="#CC7C70" d="M 528.828125 238.792969 C 437.082031 238.792969 362.703125 313.171875 362.703125 404.917969 C 362.703125 496.667969 437.082031 571.042969 528.828125 571.042969 C 620.578125 571.042969 694.953125 496.667969 694.953125 404.917969 C 694.953125 313.171875 620.578125 238.792969 528.828125 238.792969"/><path fill="#004AAD" d="M 899.285156 238.792969 C 807.539062 238.792969 733.160156 313.171875 733.160156 404.917969 C 733.160156 496.667969 807.539062 571.042969 899.285156 571.042969 C 991.035156 571.042969 1065.410156 496.667969 1065.410156 404.917969 C 1065.410156 313.171875 991.035156 238.792969 899.285156 238.792969"/><path fill="#87D157" d="M 1269.8125 238.792969 C 1178.0625 238.792969 1103.6875 313.171875 1103.6875 404.917969 C 1103.6875 496.667969 1178.0625 571.042969 1269.8125 571.042969 C 1361.558594 571.042969 1435.9375 496.667969 1435.9375 404.917969 C 1435.9375 313.171875 1361.558594 238.792969 1269.8125 238.792969"/><g clip-path="url(#c)"><path fill="#FFF" d="M 1270.023438 538.554688 C 1266.347656 538.554688 1262.925781 537.574219 1259.75 535.867188 L 1227.214844 516.550781 C 1222.324219 513.863281 1224.769531 512.886719 1226.238281 512.398438 C 1232.84375 510.191406 1234.066406 509.703125 1240.914062 505.792969 C 1241.648438 505.304688 1242.625 505.550781 1243.359375 506.042969 L 1268.304688 520.949219 C 1269.285156 521.4375 1270.511719 521.4375 1271.25 520.949219 L 1368.839844 464.476562 C 1369.816406 463.988281 1370.304688 463.011719 1370.304688 461.785156 L 1370.304688 349.070312 C 1370.304688 347.847656 1369.816406 346.871094 1368.839844 346.382812 L 1271.25 290.148438 C 1270.273438 289.65625 1269.042969 289.65625 1268.304688 290.148438 L 1170.714844 346.382812 C 1169.734375 346.871094 1169.246094 348.09375 1169.246094 349.070312 L 1169.246094 461.785156 C 1169.246094 462.761719 1169.734375 463.988281 1170.714844 464.480469 L 1197.375 479.878906 C 1211.808594 487.210938 1220.855469 478.660156 1220.855469 470.097656 L 1220.855469 358.851562 C 1220.855469 357.386719 1222.078125 355.917969 1223.792969 355.917969 L 1236.265625 355.917969 C 1237.734375 355.917969 1239.203125 357.140625 1239.203125 358.851562 L 1239.203125 470.097656 C 1239.203125 489.417969 1228.683594 500.664062 1210.339844 500.664062 C 1204.710938 500.664062 1200.308594 500.664062 1187.835938 494.546875 L 1162.152344 479.878906 C 1155.792969 476.214844 1151.878906 469.371094 1151.878906 462.035156 L 1151.878906 349.320312 C 1151.878906 341.980469 1155.792969 335.136719 1162.152344 331.46875 L 1259.75 274.992188 C 1265.859375 271.566406 1274.183594 271.566406 1280.296875 274.988281 L 1377.894531 331.46875 C 1384.253906 335.136719 1388.167969 341.980469 1388.167969 349.316406 L 1388.167969 462.03125 C 1388.167969 469.367188 1384.253906 476.210938 1377.894531 479.875 L 1280.296875 536.355469 C 1277.121094 537.824219 1273.445312 538.550781 1270.023438 538.550781 Z M 1300.113281 461.054688 C 1257.304688 461.054688 1248.496094 441.488281 1248.496094 424.863281 C 1248.496094 423.394531 1249.714844 421.929688 1251.433594 421.929688 L 1264.152344 421.929688 C 1265.621094 421.929688 1266.839844 422.90625 1266.839844 424.371094 C 1268.792969 437.335938 1274.425781 443.691406 1300.351562 443.691406 C 1320.898438 443.691406 1329.703125 439.042969 1329.703125 428.042969 C 1329.703125 421.6875 1327.257812 417.039062 1295.21875 413.863281 C 1268.554688 411.171875 1251.921875 405.304688 1251.921875 384.035156 C 1251.921875 364.230469 1268.554688 352.496094 1296.4375 352.496094 C 1327.746094 352.496094 1343.160156 363.25 1345.117188 386.722656 C 1345.117188 387.460938 1344.867188 388.1875 1344.378906 388.925781 C 1343.890625 389.414062 1343.160156 389.90625 1342.421875 389.90625 L 1329.703125 389.90625 C 1328.484375 389.90625 1327.257812 388.925781 1327.019531 387.699219 C 1324.082031 374.257812 1316.496094 369.855469 1296.4375 369.855469 C 1273.9375 369.855469 1271.25 377.679688 1271.25 383.546875 C 1271.25 390.632812 1274.425781 392.839844 1304.753906 396.75 C 1334.84375 400.660156 1349.03125 406.28125 1349.03125 427.308594 C 1348.78125 448.820312 1331.171875 461.054688 1300.113281 461.054688 Z M 1300.113281 461.054688"/></g><g clip-path="url(#d)"><path fill="#38B6FF" d="M 956.191406 279.523438 C 951.550781 279.367188 946.691406 280.175781 941.820312 281.757812 C 932.078125 284.917969 921.867188 291.078125 911.386719 299.605469 C 907.28125 302.949219 903.136719 306.769531 898.980469 310.820312 C 894.914062 306.871094 890.855469 303.152344 886.839844 299.882812 C 876.371094 291.363281 866.1875 285.199219 856.464844 282.046875 C 846.746094 278.894531 837.074219 278.796875 829.128906 283.386719 C 821.183594 287.972656 816.433594 296.398438 814.300781 306.398438 C 812.171875 316.402344 812.40625 328.3125 814.546875 341.644531 C 815.289062 346.277344 816.351562 351.132812 817.558594 356.085938 C 813.019531 357.460938 808.609375 358.910156 804.523438 360.507812 C 792.183594 365.328125 781.976562 371.09375 774.542969 377.960938 C 767.109375 384.824219 762.308594 393.152344 762.308594 402.300781 C 762.308594 411.449219 767.109375 419.765625 774.542969 426.632812 C 781.976562 433.496094 792.183594 439.273438 804.523438 444.097656 C 808.894531 445.804688 813.625 447.34375 818.511719 448.796875 C 816.753906 455.367188 815.328125 461.742188 814.359375 467.785156 C 812.21875 481.128906 811.992188 493.042969 814.128906 503.066406 C 816.261719 513.089844 821.015625 521.5625 829 526.175781 C 836.984375 530.785156 846.699219 530.671875 856.445312 527.511719 C 866.1875 524.351562 876.386719 518.203125 886.863281 509.675781 C 890.933594 506.363281 895.046875 502.585938 899.167969 498.574219 C 903.308594 502.609375 907.4375 506.40625 911.527344 509.734375 C 921.996094 518.253906 932.191406 524.40625 941.914062 527.558594 C 951.632812 530.710938 961.308594 530.808594 969.25 526.222656 C 977.195312 521.632812 981.933594 513.207031 984.066406 503.207031 C 986.199219 493.203125 985.964844 481.304688 983.824219 467.972656 C 982.847656 461.914062 981.425781 455.515625 979.660156 448.925781 C 984.707031 447.433594 989.589844 445.855469 994.089844 444.097656 C 1006.425781 439.273438 1016.636719 433.496094 1024.070312 426.632812 C 1031.503906 419.765625 1036.300781 411.449219 1036.300781 402.300781 C 1036.300781 393.152344 1031.503906 384.824219 1024.070312 377.960938 C 1016.636719 371.09375 1006.425781 365.328125 994.089844 360.507812 C 989.945312 358.886719 985.46875 357.417969 980.855469 356.027344 C 982.074219 351.046875 983.15625 346.152344 983.902344 341.492188 C 986.046875 328.148438 986.273438 316.226562 984.136719 306.203125 C 982 296.179688 977.234375 287.71875 969.25 283.105469 C 965.261719 280.800781 960.835938 279.679688 956.191406 279.523438 Z M 955.644531 291.644531 C 958.558594 291.726562 961.042969 292.417969 963.171875 293.648438 C 967.421875 296.105469 970.5625 300.882812 972.242188 308.75 C 973.917969 316.617188 973.859375 327.246094 971.878906 339.574219 C 971.203125 343.792969 970.21875 348.265625 969.101562 352.851562 C 956.921875 349.917969 943.578125 347.742188 929.355469 346.460938 C 922.214844 336.5625 914.878906 327.546875 907.480469 319.546875 C 911.394531 315.726562 915.28125 312.152344 919.074219 309.066406 C 928.753906 301.1875 937.917969 295.824219 945.566406 293.34375 C 949.386719 292.105469 952.734375 291.566406 955.644531 291.644531 Z M 842.664062 291.679688 C 845.59375 291.597656 848.945312 292.136719 852.78125 293.378906 C 860.449219 295.867188 869.628906 301.226562 879.316406 309.113281 C 883.035156 312.136719 886.835938 315.644531 890.667969 319.375 C 883.214844 327.4375 875.816406 336.535156 868.628906 346.519531 C 854.46875 347.824219 841.175781 350.011719 829.058594 352.953125 C 827.949219 348.398438 826.964844 343.945312 826.289062 339.75 C 824.308594 327.410156 824.261719 316.78125 825.941406 308.890625 C 827.625 301 830.792969 296.183594 835.082031 293.707031 C 837.226562 292.464844 839.734375 291.761719 842.664062 291.679688 Z M 899.167969 328.125 C 904.015625 333.40625 908.867188 339.183594 913.679688 345.402344 C 908.953125 345.207031 904.167969 345.089844 899.304688 345.089844 C 894.347656 345.089844 889.472656 345.210938 884.652344 345.414062 C 889.464844 339.191406 894.316406 333.410156 899.167969 328.125 Z M 899.304688 357.121094 C 907.402344 357.121094 915.292969 357.453125 922.96875 358.015625 C 928.253906 365.605469 933.414062 373.660156 938.332031 382.183594 C 942.652344 389.671875 946.5625 397.152344 950.121094 404.535156 C 946.527344 412.019531 942.550781 419.597656 938.167969 427.191406 C 934.3125 433.875 930.285156 440.222656 926.191406 446.34375 C 917.519531 447.066406 908.535156 447.472656 899.304688 447.472656 C 889.855469 447.472656 880.667969 447.042969 871.804688 446.285156 C 867.777344 440.25 863.820312 434 860.023438 427.421875 C 855.652344 419.847656 851.695312 412.28125 848.105469 404.816406 C 851.710938 397.304688 855.6875 389.699219 860.082031 382.078125 C 864.976562 373.597656 870.121094 365.59375 875.375 358.039062 C 883.132812 357.464844 891.117188 357.121094 899.304688 357.121094 Z M 938.296875 359.503906 C 948.113281 360.730469 957.328125 362.433594 965.902344 364.472656 C 963.359375 372.820312 960.222656 381.539062 956.425781 390.539062 C 953.960938 385.78125 951.40625 381.007812 948.644531 376.226562 C 945.300781 370.429688 941.820312 364.90625 938.296875 359.503906 Z M 859.675781 359.597656 C 856.226562 364.898438 852.835938 370.316406 849.558594 375.992188 C 846.765625 380.835938 844.15625 385.675781 841.664062 390.492188 C 837.898438 381.546875 834.78125 372.878906 832.257812 364.578125 C 840.769531 362.53125 849.929688 360.835938 859.675781 359.597656 Z M 977.683594 367.640625 C 981.902344 368.917969 985.980469 370.25 989.71875 371.710938 C 1001.089844 376.15625 1010.085938 381.417969 1015.917969 386.800781 C 1021.746094 392.1875 1024.277344 397.320312 1024.277344 402.300781 C 1024.277344 407.28125 1021.746094 412.417969 1015.917969 417.800781 C 1010.085938 423.183594 1001.089844 428.445312 989.71875 432.890625 C 985.5625 434.515625 981 435.988281 976.253906 437.382812 C 972.867188 426.90625 968.546875 415.972656 963.402344 404.816406 C 969.316406 392.003906 974.09375 379.511719 977.683594 367.640625 Z M 820.730469 367.695312 C 824.28125 379.449219 828.996094 391.816406 834.824219 404.5 C 829.648438 415.722656 825.308594 426.71875 821.90625 437.253906 C 817.328125 435.894531 812.917969 434.464844 808.894531 432.890625 C 797.523438 428.445312 788.527344 423.183594 782.695312 417.800781 C 776.863281 412.417969 774.335938 407.28125 774.335938 402.300781 C 774.335938 397.320312 776.863281 392.1875 782.695312 386.800781 C 788.527344 381.417969 797.523438 376.15625 808.894531 371.710938 C 812.574219 370.273438 816.582031 368.957031 820.730469 367.695312 Z M 899.304688 374.933594 C 882.9375 374.933594 869.539062 388.339844 869.539062 404.722656 C 869.539062 421.101562 882.9375 434.507812 899.304688 434.507812 C 915.675781 434.507812 929.074219 421.101562 929.074219 404.722656 C 929.074219 388.339844 915.675781 374.933594 899.304688 374.933594 Z M 841.804688 418.8125 C 844.308594 423.652344 846.914062 428.511719 849.722656 433.378906 C 851.921875 437.1875 854.164062 440.898438 856.445312 444.539062 C 848.449219 443.429688 840.847656 442.023438 833.710938 440.363281 C 835.980469 433.40625 838.695312 426.183594 841.804688 418.8125 Z M 956.578125 418.8125 C 959.699219 426.203125 962.414062 433.433594 964.695312 440.40625 C 957.535156 442.070312 949.910156 443.46875 941.890625 444.574219 C 944.199219 440.886719 946.476562 437.132812 948.703125 433.273438 C 951.492188 428.441406 954.085938 423.617188 956.578125 418.8125 Z M 830.277344 451.925781 C 841.054688 454.480469 852.734375 456.445312 865.117188 457.722656 C 873.386719 469.6875 882 480.4375 890.667969 489.835938 C 886.789062 493.617188 882.949219 497.167969 879.1875 500.226562 C 869.507812 508.105469 860.335938 513.453125 852.6875 515.933594 C 845.039062 518.414062 839.332031 518.089844 835.082031 515.632812 C 830.832031 513.175781 827.699219 508.394531 826.023438 500.53125 C 824.347656 492.664062 824.394531 482.042969 826.371094 469.71875 C 827.269531 464.125 828.613281 458.136719 830.277344 451.925781 Z M 968.136719 451.972656 C 969.816406 458.222656 971.164062 464.234375 972.066406 469.859375 C 974.046875 482.195312 974.097656 492.824219 972.414062 500.714844 C 970.734375 508.605469 967.589844 513.433594 963.296875 515.910156 C 959.007812 518.390625 953.246094 518.714844 945.574219 516.226562 C 937.90625 513.738281 928.726562 508.378906 919.039062 500.496094 C 915.253906 497.414062 911.386719 493.835938 907.480469 490.023438 C 916.207031 480.585938 924.878906 469.78125 933.203125 457.746094 C 945.617188 456.476562 957.332031 454.523438 968.136719 451.972656 Z M 880.652344 458.945312 C 886.765625 459.277344 892.960938 459.503906 899.304688 459.503906 C 905.441406 459.503906 911.433594 459.289062 917.355469 458.976562 C 911.304688 467.148438 905.136719 474.574219 898.992188 481.261719 C 892.851562 474.558594 886.695312 467.121094 880.652344 458.945312 Z M 880.652344 458.945312" fill-rule="evenodd"/></g><g fill="#FFF"><g><g><path d="M 71.703125 -135.40625 C 85.328125 -135.40625 95.941406 -131.109375 103.546875 -122.515625 C 111.160156 -113.921875 114.96875 -101.921875 114.96875 -86.515625 C 114.96875 -82.566406 114.867188 -79.601562 114.671875 -77.625 L 112.890625 -75.5625 L 22.8125 -74.375 C 22.613281 -72.394531 22.515625 -69.429688 22.515625 -65.484375 C 22.515625 -46.710938 26.8125 -31.84375 35.40625 -20.875 C 44 -9.914062 55.703125 -4.4375 70.515625 -4.4375 C 77.828125 -4.4375 84.9375 -5.570312 91.84375 -7.84375 C 98.757812 -10.125 104.785156 -13.238281 109.921875 -17.1875 L 111.703125 -16.59375 L 110.8125 -10.671875 C 98.5625 -2.566406 84.929688 1.484375 69.921875 1.484375 C 53.523438 1.484375 40.535156 -4.539062 30.953125 -16.59375 C 21.378906 -28.644531 16.59375 -44.941406 16.59375 -65.484375 C 16.59375 -86.816406 21.578125 -103.800781 31.546875 -116.4375 C 41.523438 -129.082031 54.910156 -135.40625 71.703125 -135.40625 Z M 109.328125 -87.703125 C 109.328125 -100.742188 105.921875 -110.96875 99.109375 -118.375 C 92.296875 -125.78125 83.0625 -129.484375 71.40625 -129.484375 C 58.5625 -129.484375 47.894531 -125.085938 39.40625 -116.296875 C 30.914062 -107.503906 25.582031 -95.503906 23.40625 -80.296875 L 109.03125 -81.484375 Z M 109.328125 -87.703125" transform="translate(401.626 482.709)"/></g></g></g><g fill="#FFF"><g><g><path d="M 24.296875 -125.328125 L 60.4375 -73.484375 L 95.703125 -123.859375 L 101.921875 -133.921875 L 109.921875 -133.921875 L 64 -68.4375 L 111.703125 -0.890625 L 104.59375 0.59375 L 98.078125 -9.78125 L 60.140625 -64 L 21.921875 -9.1875 L 16 0 L 8 0 L 56.59375 -69.03125 L 11.5625 -133.03125 L 18.671875 -134.515625 Z M 24.296875 -125.328125" transform="translate(533.777 482.709)"/></g></g></g></svg>