<svg xmlns="http://www.w3.org/2000/svg" width="1440" viewBox="0 0 1440 810" height="810" version="1.0"><defs><clipPath id="a"><path d="M 1.972656 176 L 668 176 L 668 634 L 1.972656 634 Z M 1.972656 176"/></clipPath><clipPath id="b"><path d="M 1.972656 154 L 563 154 L 563 655.75 L 1.972656 655.75 Z M 1.972656 154"/></clipPath><clipPath id="c"><path d="M 1.972656 154 L 564 154 L 564 655.75 L 1.972656 655.75 Z M 1.972656 154"/></clipPath></defs><path fill="#00D8FF" d="M 326.617188 404.429688 C 326.617188 406.007812 326.539062 407.582031 326.386719 409.152344 C 326.230469 410.722656 326 412.28125 325.691406 413.828125 C 325.382812 415.375 325 416.90625 324.542969 418.414062 C 324.085938 419.925781 323.554688 421.40625 322.949219 422.863281 C 322.34375 424.324219 321.671875 425.746094 320.925781 427.140625 C 320.183594 428.53125 319.375 429.882812 318.496094 431.195312 C 317.621094 432.503906 316.679688 433.769531 315.679688 434.992188 C 314.679688 436.210938 313.621094 437.378906 312.503906 438.492188 C 311.386719 439.609375 310.21875 440.667969 309 441.667969 C 307.78125 442.667969 306.515625 443.609375 305.203125 444.484375 C 303.890625 445.359375 302.539062 446.171875 301.144531 446.914062 C 299.753906 447.660156 298.328125 448.332031 296.871094 448.9375 C 295.414062 449.539062 293.929688 450.070312 292.417969 450.527344 C 290.90625 450.988281 289.378906 451.371094 287.832031 451.675781 C 286.28125 451.984375 284.722656 452.214844 283.152344 452.371094 C 281.582031 452.527344 280.007812 452.601562 278.429688 452.601562 C 276.851562 452.601562 275.277344 452.527344 273.707031 452.371094 C 272.136719 452.214844 270.578125 451.984375 269.027344 451.675781 C 267.480469 451.371094 265.953125 450.988281 264.441406 450.527344 C 262.929688 450.070312 261.449219 449.539062 259.988281 448.9375 C 258.53125 448.332031 257.105469 447.660156 255.714844 446.914062 C 254.324219 446.171875 252.96875 445.359375 251.660156 444.484375 C 250.347656 443.609375 249.078125 442.667969 247.859375 441.667969 C 246.640625 440.667969 245.472656 439.609375 244.355469 438.492188 C 243.238281 437.378906 242.179688 436.210938 241.179688 434.992188 C 240.179688 433.769531 239.238281 432.503906 238.363281 431.195312 C 237.488281 429.882812 236.675781 428.53125 235.933594 427.140625 C 235.1875 425.746094 234.515625 424.324219 233.910156 422.863281 C 233.304688 421.40625 232.773438 419.925781 232.316406 418.414062 C 231.859375 416.90625 231.476562 415.375 231.167969 413.828125 C 230.859375 412.28125 230.628906 410.722656 230.472656 409.152344 C 230.320312 407.582031 230.242188 406.007812 230.242188 404.429688 C 230.242188 402.851562 230.320312 401.277344 230.472656 399.707031 C 230.628906 398.136719 230.859375 396.578125 231.167969 395.03125 C 231.476562 393.484375 231.859375 391.957031 232.316406 390.445312 C 232.773438 388.9375 233.304688 387.453125 233.910156 385.996094 C 234.515625 384.539062 235.1875 383.113281 235.933594 381.722656 C 236.675781 380.332031 237.488281 378.976562 238.363281 377.667969 C 239.238281 376.355469 240.179688 375.089844 241.179688 373.871094 C 242.179688 372.648438 243.238281 371.480469 244.355469 370.367188 C 245.472656 369.25 246.640625 368.191406 247.859375 367.191406 C 249.078125 366.191406 250.347656 365.253906 251.660156 364.375 C 252.96875 363.5 254.324219 362.6875 255.714844 361.945312 C 257.105469 361.203125 258.53125 360.527344 259.988281 359.925781 C 261.449219 359.320312 262.929688 358.789062 264.441406 358.332031 C 265.953125 357.875 267.480469 357.492188 269.027344 357.183594 C 270.578125 356.875 272.136719 356.644531 273.707031 356.488281 C 275.277344 356.335938 276.851562 356.257812 278.429688 356.257812 C 280.007812 356.257812 281.582031 356.335938 283.152344 356.488281 C 284.722656 356.644531 286.28125 356.875 287.832031 357.183594 C 289.378906 357.492188 290.90625 357.875 292.417969 358.332031 C 293.929688 358.789062 295.414062 359.320312 296.871094 359.925781 C 298.328125 360.527344 299.753906 361.203125 301.144531 361.945312 C 302.539062 362.6875 303.890625 363.5 305.203125 364.375 C 306.515625 365.253906 307.78125 366.191406 309 367.191406 C 310.21875 368.191406 311.386719 369.25 312.503906 370.367188 C 313.621094 371.480469 314.679688 372.648438 315.679688 373.871094 C 316.679688 375.089844 317.621094 376.355469 318.496094 377.667969 C 319.375 378.976562 320.183594 380.332031 320.925781 381.722656 C 321.671875 383.113281 322.34375 384.539062 322.949219 385.996094 C 323.554688 387.453125 324.085938 388.9375 324.542969 390.445312 C 325 391.957031 325.382812 393.484375 325.691406 395.03125 C 326 396.578125 326.230469 398.136719 326.386719 399.707031 C 326.539062 401.277344 326.617188 402.851562 326.617188 404.429688 Z M 326.617188 404.429688"/><g clip-path="url(#a)"><path transform="matrix(.96055 0 0 .96025 19.534 176.245)" fill="none" d="M 269.529782 135.630224 C 336.886487 135.630224 399.460756 145.295623 446.63851 161.538862 C 503.482804 181.1056 538.431999 210.768936 538.431999 237.62947 C 538.431999 265.620888 501.392521 297.131064 440.351397 317.356805 C 394.202517 332.64815 333.470461 340.629426 269.529782 340.629426 C 203.97869 340.629426 141.900557 333.136301 95.23114 317.19002 C 36.186764 297.009026 0.619431 265.087989 0.619431 237.62947 C 0.619431 210.988604 33.990748 181.553072 90.037968 162.01481 C 137.39059 145.503087 201.506138 135.630224 269.525715 135.630224 Z M 269.529782 135.630224" stroke="#00D8FF" stroke-width="24"/></g><g clip-path="url(#b)"><path transform="matrix(.96055 0 0 .96025 19.534 176.245)" fill="none" d="M 180.741582 186.91867 C 214.389435 128.572368 254.019399 79.199916 291.660748 46.440886 C 337.008488 6.977909 380.160212 -8.48022 403.429853 4.935809 C 427.679568 18.921348 436.471767 66.752054 423.499003 129.735795 C 413.698263 177.354969 390.261887 233.947994 358.322048 289.336912 C 325.572935 346.125198 288.069854 396.156653 250.940909 428.606521 C 203.962423 469.67633 158.541482 484.536474 134.759437 470.819418 C 111.680931 457.521359 102.856198 413.900959 113.925747 355.591268 C 123.283218 306.320515 146.76026 245.850754 180.725315 186.930874 Z M 180.741582 186.91867" stroke="#00D8FF" stroke-width="24"/></g><g clip-path="url(#c)"><path transform="matrix(.96055 0 0 .96025 19.534 176.245)" fill="none" d="M 180.818849 289.47929 C 147.08153 231.198074 124.100624 172.200904 114.511352 123.231177 C 102.965999 64.229939 111.12786 19.120677 134.373101 5.6599 C 158.598416 -8.36225 204.430093 7.905397 252.514721 50.598309 C 288.870993 82.881392 326.203273 131.43619 358.23258 186.768157 C 391.079294 243.503559 415.695012 300.979324 425.268017 349.351065 C 437.386774 410.561189 427.581967 457.330166 403.816189 471.091969 C 380.758016 484.438843 338.566033 470.306859 293.576162 431.588313 C 255.564743 398.878098 214.893705 348.338151 180.818849 289.471154 Z M 180.818849 289.47929" stroke="#00D8FF" stroke-width="24"/></g><path fill="#00D8FF" d="M 813.324219 527.511719 L 754.261719 438.304688 C 784.109375 435.671875 811.007812 414.050781 811.007812 374.546875 C 811.007812 334.351562 782.476562 308.625 742.449219 308.625 L 654.546875 308.625 L 654.546875 527.34375 L 681.777344 527.34375 L 681.777344 440.441406 L 725.40625 440.441406 L 781.171875 527.34375 Z M 739.1875 416.667969 L 681.789062 416.667969 L 681.789062 333.046875 L 739.1875 333.046875 C 765.117188 333.046875 782.820312 350.097656 782.820312 374.699219 C 782.820312 399.300781 765.101562 416.695312 739.1875 416.695312 Z M 914.6875 531.433594 C 940.617188 531.433594 961.925781 522.910156 977.675781 507.179688 L 965.863281 491.101562 C 953.386719 503.894531 935.027344 511.101562 916.988281 511.101562 C 882.882812 511.101562 861.878906 486.179688 859.910156 456.351562 L 988.15625 456.351562 L 988.15625 450.113281 C 988.15625 402.574219 959.941406 365.175781 912.039062 365.175781 C 866.773438 365.175781 833.980469 402.238281 833.980469 448.144531 C 833.980469 497.667969 867.769531 531.308594 914.675781 531.308594 Z M 963.910156 438.292969 L 859.921875 438.292969 C 861.238281 414.035156 877.945312 385.484375 911.75 385.484375 C 947.839844 385.484375 963.574219 414.671875 963.910156 438.292969 Z M 1151.554688 527.496094 L 1151.554688 418.625 C 1151.554688 380.257812 1123.683594 365.164062 1090.214844 365.164062 C 1064.289062 365.164062 1043.964844 373.6875 1026.910156 391.402344 L 1038.390625 408.449219 C 1052.488281 393.371094 1067.921875 386.480469 1086.945312 386.480469 C 1109.902344 386.480469 1126.972656 398.609375 1126.972656 419.925781 L 1126.972656 448.449219 C 1114.175781 433.691406 1096.136719 426.800781 1074.480469 426.800781 C 1047.582031 426.800781 1019.019531 443.53125 1019.019531 478.945312 C 1019.019531 513.375 1047.554688 531.421875 1074.480469 531.421875 C 1095.804688 531.421875 1113.855469 523.878906 1126.972656 509.449219 L 1126.972656 527.46875 Z M 1083.339844 513.71875 C 1060.378906 513.71875 1044.296875 499.304688 1044.296875 479.289062 C 1044.296875 458.957031 1060.378906 444.527344 1083.339844 444.527344 C 1100.726562 444.527344 1117.445312 451.085938 1126.972656 464.210938 L 1126.972656 494.050781 C 1117.460938 507.164062 1100.726562 513.734375 1083.339844 513.734375 Z M 1270.511719 531.433594 C 1299.378906 531.433594 1316.433594 519.625 1328.578125 503.894531 L 1312.175781 488.8125 C 1301.679688 502.910156 1288.230469 509.464844 1271.96875 509.464844 C 1238.179688 509.464844 1217.203125 483.226562 1217.203125 448.144531 C 1217.203125 413.066406 1238.195312 387.160156 1271.96875 387.160156 C 1288.371094 387.160156 1301.820312 393.398438 1312.175781 407.8125 L 1328.578125 392.730469 C 1316.445312 376.988281 1299.378906 365.191406 1270.511719 365.191406 C 1223.273438 365.191406 1191.457031 401.269531 1191.457031 448.160156 C 1191.457031 495.382812 1223.273438 531.324219 1270.511719 531.324219 Z M 1403.058594 531.433594 C 1417.476562 531.433594 1426.351562 527.164062 1432.589844 521.273438 L 1425.378906 502.910156 C 1422.09375 506.511719 1415.675781 509.464844 1408.644531 509.464844 C 1397.832031 509.464844 1392.5625 500.941406 1392.5625 489.132812 L 1392.5625 390.75 L 1424.730469 390.75 L 1424.730469 369.113281 L 1392.5625 369.113281 L 1392.5625 325.828125 L 1367.953125 325.828125 L 1367.953125 369.113281 L 1341.707031 369.113281 L 1341.707031 390.761719 L 1367.953125 390.761719 L 1367.953125 494.398438 C 1367.953125 518.015625 1379.765625 531.460938 1403.058594 531.460938 Z M 1403.058594 531.433594" fill-rule="evenodd"/></svg>