<svg xmlns="http://www.w3.org/2000/svg" width="1440" viewBox="0 0 1440 810" height="810" version="1.0"><defs><clipPath id="a"><path d="M 109.816406 17 L 553.066406 17 L 553.066406 388 L 109.816406 388 Z M 109.816406 17"/></clipPath><clipPath id="b"><path d="M 109.816406 0 L 553.066406 0 L 553.066406 405 L 109.816406 405 Z M 109.816406 0"/></clipPath></defs><path fill="#00D8FF" d="M 371.800781 202.140625 C 371.800781 203.414062 371.738281 204.6875 371.613281 205.953125 C 371.488281 207.222656 371.300781 208.480469 371.050781 209.726562 C 370.804688 210.976562 370.496094 212.210938 370.125 213.429688 C 369.753906 214.648438 369.328125 215.847656 368.839844 217.023438 C 368.351562 218.199219 367.808594 219.347656 367.207031 220.472656 C 366.609375 221.59375 365.953125 222.6875 365.246094 223.746094 C 364.539062 224.804688 363.78125 225.824219 362.972656 226.808594 C 362.164062 227.792969 361.308594 228.738281 360.410156 229.636719 C 359.507812 230.539062 358.566406 231.390625 357.582031 232.199219 C 356.597656 233.007812 355.574219 233.765625 354.515625 234.472656 C 353.457031 235.179688 352.367188 235.835938 351.242188 236.433594 C 350.121094 237.035156 348.96875 237.578125 347.792969 238.066406 C 346.617188 238.554688 345.417969 238.980469 344.199219 239.351562 C 342.980469 239.722656 341.75 240.03125 340.5 240.277344 C 339.25 240.527344 337.992188 240.714844 336.722656 240.839844 C 335.457031 240.964844 334.1875 241.027344 332.914062 241.027344 C 331.640625 241.027344 330.367188 240.964844 329.101562 240.839844 C 327.832031 240.714844 326.574219 240.527344 325.324219 240.277344 C 324.078125 240.03125 322.84375 239.722656 321.625 239.351562 C 320.40625 238.980469 319.207031 238.554688 318.03125 238.066406 C 316.855469 237.578125 315.703125 237.035156 314.582031 236.433594 C 313.457031 235.835938 312.367188 235.179688 311.308594 234.472656 C 310.25 233.765625 309.226562 233.007812 308.242188 232.199219 C 307.257812 231.390625 306.316406 230.539062 305.414062 229.636719 C 304.515625 228.738281 303.660156 227.792969 302.851562 226.808594 C 302.042969 225.824219 301.285156 224.804688 300.578125 223.746094 C 299.871094 222.6875 299.21875 221.59375 298.617188 220.472656 C 298.015625 219.347656 297.472656 218.199219 296.984375 217.023438 C 296.496094 215.847656 296.070312 214.648438 295.699219 213.429688 C 295.328125 212.210938 295.019531 210.976562 294.773438 209.726562 C 294.523438 208.480469 294.335938 207.222656 294.210938 205.953125 C 294.085938 204.6875 294.023438 203.414062 294.023438 202.140625 C 294.023438 200.867188 294.085938 199.597656 294.210938 198.332031 C 294.335938 197.0625 294.523438 195.804688 294.773438 194.554688 C 295.019531 193.308594 295.328125 192.074219 295.699219 190.855469 C 296.070312 189.636719 296.496094 188.4375 296.984375 187.261719 C 297.472656 186.085938 298.015625 184.933594 298.617188 183.8125 C 299.21875 182.6875 299.871094 181.597656 300.578125 180.539062 C 301.285156 179.480469 302.042969 178.457031 302.851562 177.472656 C 303.660156 176.488281 304.515625 175.546875 305.414062 174.648438 C 306.316406 173.746094 307.257812 172.890625 308.242188 172.085938 C 309.226562 171.277344 310.25 170.519531 311.308594 169.8125 C 312.367188 169.105469 313.457031 168.449219 314.582031 167.847656 C 315.703125 167.25 316.855469 166.707031 318.03125 166.21875 C 319.207031 165.730469 320.40625 165.300781 321.625 164.933594 C 322.84375 164.5625 324.078125 164.253906 325.324219 164.003906 C 326.574219 163.757812 327.832031 163.570312 329.101562 163.445312 C 330.367188 163.320312 331.640625 163.257812 332.914062 163.257812 C 334.1875 163.257812 335.457031 163.320312 336.722656 163.445312 C 337.992188 163.570312 339.25 163.757812 340.5 164.003906 C 341.75 164.253906 342.980469 164.5625 344.199219 164.933594 C 345.417969 165.300781 346.617188 165.730469 347.792969 166.21875 C 348.96875 166.707031 350.121094 167.25 351.242188 167.847656 C 352.367188 168.449219 353.457031 169.105469 354.515625 169.8125 C 355.574219 170.519531 356.597656 171.277344 357.582031 172.085938 C 358.566406 172.890625 359.507812 173.746094 360.410156 174.648438 C 361.308594 175.546875 362.164062 176.488281 362.972656 177.472656 C 363.78125 178.457031 364.539062 179.480469 365.246094 180.539062 C 365.953125 181.597656 366.609375 182.6875 367.207031 183.8125 C 367.808594 184.933594 368.351562 186.085938 368.839844 187.261719 C 369.328125 188.4375 369.753906 189.636719 370.125 190.855469 C 370.496094 192.074219 370.804688 193.308594 371.050781 194.554688 C 371.300781 195.804688 371.488281 197.0625 371.613281 198.332031 C 371.738281 199.597656 371.800781 200.867188 371.800781 202.140625 Z M 371.800781 202.140625"/><g clip-path="url(#a)"><path transform="matrix(.77516 0 0 .7751 123.984 17.957)" fill="none" d="M 269.532119 135.629398 C 336.887461 135.629398 399.460504 145.295565 446.638471 161.538558 C 503.481824 181.10776 538.434439 210.771505 538.434439 237.628131 C 538.434439 265.618692 501.395552 297.132011 440.349419 317.356376 C 394.19947 332.646862 333.470813 340.629766 269.532119 340.629766 C 203.975809 340.629766 141.901658 333.135714 95.23266 317.190065 C 36.187131 297.006018 0.619721 265.089522 0.619721 237.628131 C 0.619721 210.988213 33.989994 181.556294 90.037137 162.01229 C 137.39148 145.502194 201.50655 135.629398 269.52708 135.629398 Z M 269.532119 135.629398" stroke="#00D8FF" stroke-width="24"/></g><g clip-path="url(#b)" fill="none" stroke="#00D8FF" stroke-width="24"><path transform="matrix(.77516 0 0 .7751 123.984 17.957)" d="M 180.739576 186.918548 C 214.392051 128.573801 254.02114 79.199741 291.659705 46.441613 C 337.008405 6.975628 380.159968 -8.481169 403.431476 4.934544 C 427.675569 18.919745 436.474194 66.751653 423.497985 129.737974 C 413.696538 177.353174 390.263773 233.949141 358.319623 289.335577 C 325.569184 346.123052 288.07172 396.157314 250.942126 428.60802 C 203.960691 469.676634 158.541441 484.538745 134.760963 470.820649 C 111.680949 457.520848 102.857128 413.90214 113.928479 355.587632 C 123.281428 306.319406 146.759547 245.847901 180.729498 186.928627 Z M 180.739576 186.918548"/><path transform="matrix(.77516 0 0 .7751 123.984 17.957)" d="M 180.820205 289.481728 C 147.082063 231.202498 124.097795 172.197549 114.507999 123.231706 C 102.967992 64.231797 111.126626 19.121334 134.372937 5.660263 C 158.596873 -8.365256 204.429346 7.902935 252.514388 50.599375 C 288.86793 82.878731 326.204136 131.436357 358.233955 186.772396 C 391.080141 243.504435 415.692103 300.982351 425.271821 349.348468 C 437.386308 410.560811 427.579822 457.329339 403.819502 471.087753 C 380.759645 484.437951 338.56555 470.306598 293.57464 431.59153 C 255.563168 398.878759 214.895981 348.335486 180.815166 289.471649 Z M 180.820205 289.481728"/></g><path fill="#FF8F00" d="M 975.617188 720.835938 L 1125.242188 440.019531 C 1128.394531 434.101562 1136.917969 434.210938 1139.914062 440.21875 L 1191.695312 543.875 Z M 975.617188 720.835938"/><path fill="#FFA000" d="M 975.617188 720.757812 L 1030.089844 384.542969 C 1031.511719 375.746094 1043.320312 373.835938 1047.445312 381.742188 L 1152.40625 583.121094 Z M 975.617188 720.757812"/><path fill="#FF6F00" d="M 975.695312 720.699219 L 977.660156 719.15625 L 1149.824219 578.167969 L 1101.265625 485.007812 Z M 975.695312 720.699219"/><path fill="#FFC400" d="M 975.617188 720.835938 L 1237.523438 468.050781 C 1243.011719 462.75 1252.175781 465.875 1253.296875 473.425781 L 1289.910156 720.835938 L 1142.585938 806.789062 C 1136.605469 810.152344 1129.308594 810.152344 1123.324219 806.789062 Z M 975.617188 720.835938"/><g fill="#FF8F00"><g><g><path d="M 37.234375 -129.953125 L 37.234375 -75.609375 L 118.75 -75.609375 L 118.75 -59.21875 L 37.234375 -59.21875 L 37.234375 0 L 17.421875 0 L 17.421875 -146.140625 L 121.234375 -146.140625 L 121.234375 -129.953125 Z M 37.234375 -129.953125" transform="translate(80.357 665.325)"/></g></g></g><g fill="#FF8F00"><g><g><path d="M 14.203125 -136.078125 L 14.203125 -153.90625 L 32.875 -153.90625 L 32.875 -136.078125 Z M 14.203125 0 L 14.203125 -112.21875 L 32.875 -112.21875 L 32.875 0 Z M 14.203125 0" transform="translate(215.204 665.325)"/></g></g></g><g fill="#FF8F00"><g><g><path d="M 14.734375 0 L 14.734375 -86.078125 C 14.734375 -93.960938 14.523438 -102.675781 14.109375 -112.21875 L 31.734375 -112.21875 C 32.285156 -99.5 32.5625 -91.859375 32.5625 -89.296875 L 32.984375 -89.296875 C 35.953125 -98.910156 39.375 -105.476562 43.25 -109 C 47.125 -112.53125 52.585938 -114.296875 59.640625 -114.296875 C 62.128906 -114.296875 64.648438 -113.945312 67.203125 -113.25 L 67.203125 -96.140625 C 64.710938 -96.835938 61.394531 -97.1875 57.25 -97.1875 C 49.507812 -97.1875 43.597656 -93.847656 39.515625 -87.171875 C 35.429688 -80.492188 33.390625 -70.9375 33.390625 -58.5 L 33.390625 0 Z M 14.734375 0" transform="translate(267.493 665.325)"/></g></g></g><g fill="#FF8F00"><g><g><path d="M 28.625 -52.171875 C 28.625 -39.304688 31.285156 -29.378906 36.609375 -22.390625 C 41.929688 -15.410156 49.710938 -11.921875 59.953125 -11.921875 C 68.035156 -11.921875 74.515625 -13.546875 79.390625 -16.796875 C 84.265625 -20.046875 87.566406 -24.160156 89.296875 -29.140625 L 105.6875 -24.46875 C 98.976562 -6.769531 83.734375 2.078125 59.953125 2.078125 C 43.359375 2.078125 30.71875 -2.863281 22.03125 -12.75 C 13.351562 -22.644531 9.015625 -37.335938 9.015625 -56.828125 C 9.015625 -75.359375 13.351562 -89.566406 22.03125 -99.453125 C 30.71875 -109.347656 43.113281 -114.296875 59.21875 -114.296875 C 92.195312 -114.296875 108.6875 -94.414062 108.6875 -54.65625 L 108.6875 -52.171875 Z M 89.40625 -66.484375 C 88.363281 -78.304688 85.351562 -86.929688 80.375 -92.359375 C 75.394531 -97.785156 68.238281 -100.5 58.90625 -100.5 C 49.851562 -100.5 42.679688 -97.472656 37.390625 -91.421875 C 32.097656 -85.367188 29.242188 -77.054688 28.828125 -66.484375 Z M 89.40625 -66.484375" transform="translate(343.326 665.325)"/></g></g></g><g fill="#FF8F00"><g><g><path d="M 109.203125 -56.625 C 109.203125 -17.488281 95.445312 2.078125 67.9375 2.078125 C 59.425781 2.078125 52.351562 0.539062 46.71875 -2.53125 C 41.082031 -5.613281 36.503906 -10.578125 32.984375 -17.421875 L 32.78125 -17.421875 C 32.78125 -15.273438 32.640625 -12.003906 32.359375 -7.609375 C 32.078125 -3.222656 31.867188 -0.6875 31.734375 0 L 13.6875 0 C 14.101562 -3.726562 14.3125 -11.4375 14.3125 -23.125 L 14.3125 -153.90625 L 32.984375 -153.90625 L 32.984375 -110.046875 C 32.984375 -105.546875 32.84375 -100.253906 32.5625 -94.171875 L 32.984375 -94.171875 C 36.441406 -101.359375 41.019531 -106.507812 46.71875 -109.625 C 52.425781 -112.738281 59.5 -114.296875 67.9375 -114.296875 C 82.101562 -114.296875 92.519531 -109.523438 99.1875 -99.984375 C 105.863281 -90.441406 109.203125 -75.988281 109.203125 -56.625 Z M 89.609375 -56 C 89.609375 -71.695312 87.53125 -82.929688 83.375 -89.703125 C 79.226562 -96.484375 72.488281 -99.875 63.15625 -99.875 C 52.644531 -99.875 44.988281 -96.273438 40.1875 -89.078125 C 35.382812 -81.890625 32.984375 -70.484375 32.984375 -54.859375 C 32.984375 -40.140625 35.332031 -29.269531 40.03125 -22.25 C 44.738281 -15.226562 52.378906 -11.71875 62.953125 -11.71875 C 72.359375 -11.71875 79.148438 -15.191406 83.328125 -22.140625 C 87.515625 -29.085938 89.609375 -40.375 89.609375 -56 Z M 89.609375 -56" transform="translate(466.557 665.325)"/></g></g></g><g fill="#FF8F00"><g><g><path d="M 42.9375 2.078125 C 31.664062 2.078125 23.191406 -0.894531 17.515625 -6.84375 C 11.847656 -12.789062 9.015625 -20.953125 9.015625 -31.328125 C 9.015625 -42.941406 12.832031 -51.859375 20.46875 -58.078125 C 28.113281 -64.304688 40.441406 -67.625 57.453125 -68.03125 L 82.65625 -68.453125 L 82.65625 -74.578125 C 82.65625 -83.703125 80.71875 -90.234375 76.84375 -94.171875 C 72.976562 -98.109375 66.894531 -100.078125 58.59375 -100.078125 C 50.226562 -100.078125 44.144531 -98.660156 40.34375 -95.828125 C 36.539062 -92.992188 34.257812 -88.46875 33.5 -82.25 L 14 -84.015625 C 17.175781 -104.203125 32.179688 -114.296875 59.015625 -114.296875 C 73.117188 -114.296875 83.726562 -111.0625 90.84375 -104.59375 C 97.96875 -98.125 101.53125 -88.773438 101.53125 -76.546875 L 101.53125 -28.203125 C 101.53125 -22.671875 102.253906 -18.503906 103.703125 -15.703125 C 105.160156 -12.910156 107.929688 -11.515625 112.015625 -11.515625 C 113.804688 -11.515625 115.84375 -11.753906 118.125 -12.234375 L 118.125 -0.625 C 113.425781 0.476562 108.625 1.03125 103.71875 1.03125 C 96.800781 1.03125 91.769531 -0.78125 88.625 -4.40625 C 85.476562 -8.039062 83.695312 -13.726562 83.28125 -21.46875 L 82.65625 -21.46875 C 77.882812 -12.894531 72.335938 -6.828125 66.015625 -3.265625 C 59.691406 0.296875 52 2.078125 42.9375 2.078125 Z M 47.1875 -11.921875 C 54.03125 -11.921875 60.113281 -13.476562 65.4375 -16.59375 C 70.757812 -19.707031 74.957031 -23.976562 78.03125 -29.40625 C 81.113281 -34.832031 82.65625 -40.414062 82.65625 -46.15625 L 82.65625 -55.390625 L 62.234375 -54.96875 C 53.453125 -54.832031 46.796875 -53.929688 42.265625 -52.265625 C 37.734375 -50.609375 34.253906 -48.050781 31.828125 -44.59375 C 29.410156 -41.132812 28.203125 -36.609375 28.203125 -31.015625 C 28.203125 -24.929688 29.84375 -20.226562 33.125 -16.90625 C 36.414062 -13.582031 41.101562 -11.921875 47.1875 -11.921875 Z M 47.1875 -11.921875" transform="translate(589.788 665.325)"/></g></g></g><g fill="#FF8F00"><g><g><path d="M 98.53125 -31.015625 C 98.53125 -20.429688 94.535156 -12.269531 86.546875 -6.53125 C 78.566406 -0.789062 67.382812 2.078125 53 2.078125 C 39.03125 2.078125 28.257812 -0.21875 20.6875 -4.8125 C 13.113281 -9.414062 8.1875 -16.59375 5.90625 -26.34375 L 22.40625 -29.5625 C 23.988281 -23.539062 27.269531 -19.128906 32.25 -16.328125 C 37.226562 -13.535156 44.144531 -12.140625 53 -12.140625 C 62.46875 -12.140625 69.394531 -13.585938 73.78125 -16.484375 C 78.175781 -19.390625 80.375 -23.75 80.375 -29.5625 C 80.375 -33.988281 78.851562 -37.582031 75.8125 -40.34375 C 72.769531 -43.113281 67.863281 -45.394531 61.09375 -47.1875 L 47.703125 -50.71875 C 36.984375 -53.476562 29.359375 -56.1875 24.828125 -58.84375 C 20.304688 -61.507812 16.765625 -64.742188 14.203125 -68.546875 C 11.648438 -72.359375 10.375 -77.03125 10.375 -82.5625 C 10.375 -92.789062 14.019531 -100.582031 21.3125 -105.9375 C 28.601562 -111.300781 39.234375 -113.984375 53.203125 -113.984375 C 65.578125 -113.984375 75.410156 -111.800781 82.703125 -107.4375 C 90.003906 -103.082031 94.625 -96.101562 96.5625 -86.5 L 79.75 -84.421875 C 78.71875 -89.398438 75.9375 -93.21875 71.40625 -95.875 C 66.875 -98.539062 60.804688 -99.875 53.203125 -99.875 C 44.765625 -99.875 38.539062 -98.59375 34.53125 -96.03125 C 30.519531 -93.476562 28.515625 -89.609375 28.515625 -84.421875 C 28.515625 -81.242188 29.34375 -78.613281 31 -76.53125 C 32.664062 -74.457031 35.125 -72.695312 38.375 -71.25 C 41.625 -69.800781 48.46875 -67.796875 58.90625 -65.234375 C 68.789062 -62.742188 75.910156 -60.441406 80.265625 -58.328125 C 84.628906 -56.222656 88.070312 -53.890625 90.59375 -51.328125 C 93.113281 -48.773438 95.066406 -45.820312 96.453125 -42.46875 C 97.835938 -39.113281 98.53125 -35.296875 98.53125 -31.015625 Z M 98.53125 -31.015625" transform="translate(713.02 665.325)"/></g></g></g><g fill="#FF8F00"><g><g><path d="M 28.625 -52.171875 C 28.625 -39.304688 31.285156 -29.378906 36.609375 -22.390625 C 41.929688 -15.410156 49.710938 -11.921875 59.953125 -11.921875 C 68.035156 -11.921875 74.515625 -13.546875 79.390625 -16.796875 C 84.265625 -20.046875 87.566406 -24.160156 89.296875 -29.140625 L 105.6875 -24.46875 C 98.976562 -6.769531 83.734375 2.078125 59.953125 2.078125 C 43.359375 2.078125 30.71875 -2.863281 22.03125 -12.75 C 13.351562 -22.644531 9.015625 -37.335938 9.015625 -56.828125 C 9.015625 -75.359375 13.351562 -89.566406 22.03125 -99.453125 C 30.71875 -109.347656 43.113281 -114.296875 59.21875 -114.296875 C 92.195312 -114.296875 108.6875 -94.414062 108.6875 -54.65625 L 108.6875 -52.171875 Z M 89.40625 -66.484375 C 88.363281 -78.304688 85.351562 -86.929688 80.375 -92.359375 C 75.394531 -97.785156 68.238281 -100.5 58.90625 -100.5 C 49.851562 -100.5 42.679688 -97.472656 37.390625 -91.421875 C 32.097656 -85.367188 29.242188 -77.054688 28.828125 -66.484375 Z M 89.40625 -66.484375" transform="translate(824.323 665.325)"/></g></g></g><path fill="#00D8FF" d="M 741.859375 301.488281 L 694.195312 229.484375 C 718.285156 227.359375 739.992188 209.90625 739.992188 178.019531 C 739.992188 145.578125 716.964844 124.8125 684.664062 124.8125 L 613.726562 124.8125 L 613.726562 301.355469 L 635.699219 301.355469 L 635.699219 231.207031 L 670.910156 231.207031 L 715.914062 301.355469 Z M 682.035156 212.019531 L 635.710938 212.019531 L 635.710938 144.523438 L 682.035156 144.523438 C 702.957031 144.523438 717.246094 158.285156 717.246094 178.144531 C 717.246094 198.003906 702.945312 212.042969 682.035156 212.042969 Z M 823.660156 304.65625 C 844.582031 304.65625 861.78125 297.777344 874.492188 285.078125 L 864.957031 272.097656 C 854.886719 282.425781 840.074219 288.242188 825.519531 288.242188 C 797.992188 288.242188 781.042969 268.128906 779.453125 244.050781 L 882.949219 244.050781 L 882.949219 239.015625 C 882.949219 200.644531 860.179688 170.457031 821.523438 170.457031 C 784.992188 170.457031 758.53125 200.375 758.53125 237.429688 C 758.53125 277.402344 785.796875 304.554688 823.648438 304.554688 Z M 863.382812 229.472656 L 779.464844 229.472656 C 780.527344 209.894531 794.011719 186.847656 821.289062 186.847656 C 850.414062 186.847656 863.113281 210.410156 863.382812 229.472656 Z M 1014.808594 301.480469 L 1014.808594 213.597656 C 1014.808594 182.628906 992.320312 170.445312 965.308594 170.445312 C 944.386719 170.445312 927.984375 177.328125 914.222656 191.625 L 923.488281 205.386719 C 934.867188 193.214844 947.320312 187.652344 962.667969 187.652344 C 981.199219 187.652344 994.972656 197.441406 994.972656 214.648438 L 994.972656 237.675781 C 984.644531 225.757812 970.089844 220.199219 952.609375 220.199219 C 930.90625 220.199219 907.855469 233.703125 907.855469 262.289062 C 907.855469 290.078125 930.882812 304.644531 952.609375 304.644531 C 969.820312 304.644531 984.386719 298.558594 994.972656 286.914062 L 994.972656 301.457031 Z M 959.761719 290.359375 C 941.230469 290.359375 928.253906 278.722656 928.253906 262.566406 C 928.253906 246.15625 941.230469 234.507812 959.761719 234.507812 C 973.792969 234.507812 987.285156 239.800781 994.972656 250.394531 L 994.972656 274.484375 C 987.296875 285.066406 973.792969 290.371094 959.761719 290.371094 Z M 1110.808594 304.65625 C 1134.105469 304.65625 1147.867188 295.125 1157.667969 282.425781 L 1144.429688 270.253906 C 1135.960938 281.632812 1125.109375 286.921875 1111.984375 286.921875 C 1084.71875 286.921875 1067.789062 265.746094 1067.789062 237.429688 C 1067.789062 209.113281 1084.726562 188.203125 1111.984375 188.203125 C 1125.21875 188.203125 1136.074219 193.238281 1144.429688 204.871094 L 1157.667969 192.699219 C 1147.878906 179.988281 1134.105469 170.46875 1110.808594 170.46875 C 1072.6875 170.46875 1047.011719 199.589844 1047.011719 237.441406 C 1047.011719 275.558594 1072.6875 304.566406 1110.808594 304.566406 Z M 1217.773438 304.65625 C 1229.410156 304.65625 1236.570312 301.210938 1241.605469 296.457031 L 1235.789062 281.632812 C 1233.136719 284.539062 1227.957031 286.921875 1222.28125 286.921875 C 1213.554688 286.921875 1209.304688 280.042969 1209.304688 270.511719 L 1209.304688 191.097656 L 1235.261719 191.097656 L 1235.261719 173.636719 L 1209.304688 173.636719 L 1209.304688 138.695312 L 1189.441406 138.695312 L 1189.441406 173.636719 L 1168.261719 173.636719 L 1168.261719 191.109375 L 1189.441406 191.109375 L 1189.441406 274.761719 C 1189.441406 293.828125 1198.976562 304.679688 1217.773438 304.679688 Z M 1217.773438 304.65625" fill-rule="evenodd"/></svg>