<svg xmlns="http://www.w3.org/2000/svg" width="1440" viewBox="0 0 1440 810" height="810" version="1.0"><defs><clipPath id="a"><path d="M 134.480469 415 L 525.980469 415 L 525.980469 742 L 134.480469 742 Z M 134.480469 415"/></clipPath><clipPath id="b"><path d="M 134.480469 399.582031 L 525.980469 399.582031 L 525.980469 757.332031 L 134.480469 757.332031 Z M 134.480469 399.582031"/></clipPath><clipPath id="c"><path d="M 135 52.488281 L 437 52.488281 L 437 353 L 135 353 Z M 135 52.488281"/></clipPath></defs><path fill="#00D8FF" d="M 365.980469 578.140625 C 365.980469 579.265625 365.925781 580.390625 365.816406 581.507812 C 365.707031 582.628906 365.542969 583.738281 365.320312 584.84375 C 365.101562 585.945312 364.828125 587.035156 364.503906 588.113281 C 364.175781 589.1875 363.796875 590.246094 363.367188 591.285156 C 362.9375 592.324219 362.457031 593.339844 361.925781 594.332031 C 361.394531 595.324219 360.816406 596.289062 360.191406 597.222656 C 359.566406 598.160156 358.894531 599.0625 358.183594 599.933594 C 357.46875 600.800781 356.714844 601.632812 355.917969 602.429688 C 355.121094 603.226562 354.289062 603.980469 353.417969 604.691406 C 352.550781 605.40625 351.644531 606.074219 350.710938 606.699219 C 349.773438 607.324219 348.8125 607.902344 347.816406 608.433594 C 346.824219 608.964844 345.808594 609.445312 344.769531 609.875 C 343.730469 610.304688 342.671875 610.683594 341.59375 611.011719 C 340.519531 611.335938 339.425781 611.609375 338.324219 611.828125 C 337.21875 612.050781 336.109375 612.214844 334.988281 612.324219 C 333.867188 612.433594 332.746094 612.488281 331.621094 612.488281 C 330.496094 612.488281 329.371094 612.433594 328.25 612.324219 C 327.132812 612.214844 326.019531 612.050781 324.914062 611.828125 C 323.8125 611.609375 322.722656 611.335938 321.644531 611.011719 C 320.566406 610.683594 319.507812 610.304688 318.46875 609.875 C 317.429688 609.445312 316.414062 608.964844 315.421875 608.433594 C 314.429688 607.902344 313.464844 607.324219 312.527344 606.699219 C 311.59375 606.074219 310.691406 605.40625 309.820312 604.691406 C 308.949219 603.980469 308.117188 603.226562 307.320312 602.429688 C 306.527344 601.632812 305.769531 600.800781 305.058594 599.933594 C 304.34375 599.0625 303.671875 598.160156 303.046875 597.222656 C 302.421875 596.289062 301.84375 595.324219 301.316406 594.332031 C 300.785156 593.339844 300.304688 592.324219 299.871094 591.285156 C 299.441406 590.246094 299.0625 589.1875 298.738281 588.113281 C 298.410156 587.035156 298.136719 585.945312 297.917969 584.84375 C 297.699219 583.738281 297.53125 582.628906 297.421875 581.507812 C 297.3125 580.390625 297.257812 579.265625 297.257812 578.140625 C 297.257812 577.015625 297.3125 575.894531 297.421875 574.773438 C 297.53125 573.65625 297.699219 572.542969 297.917969 571.441406 C 298.136719 570.335938 298.410156 569.246094 298.738281 568.171875 C 299.0625 567.09375 299.441406 566.035156 299.871094 564.996094 C 300.304688 563.957031 300.785156 562.941406 301.316406 561.949219 C 301.84375 560.957031 302.421875 559.996094 303.046875 559.058594 C 303.671875 558.125 304.34375 557.222656 305.058594 556.351562 C 305.769531 555.480469 306.527344 554.648438 307.320312 553.855469 C 308.117188 553.058594 308.949219 552.304688 309.820312 551.589844 C 310.691406 550.878906 311.59375 550.207031 312.527344 549.582031 C 313.464844 548.957031 314.429688 548.378906 315.421875 547.851562 C 316.414062 547.320312 317.429688 546.839844 318.46875 546.410156 C 319.507812 545.976562 320.566406 545.601562 321.644531 545.273438 C 322.722656 544.945312 323.8125 544.671875 324.914062 544.453125 C 326.019531 544.234375 327.132812 544.070312 328.25 543.960938 C 329.371094 543.847656 330.496094 543.792969 331.621094 543.792969 C 332.746094 543.792969 333.867188 543.847656 334.988281 543.960938 C 336.109375 544.070312 337.21875 544.234375 338.324219 544.453125 C 339.425781 544.671875 340.519531 544.945312 341.59375 545.273438 C 342.671875 545.601562 343.730469 545.976562 344.769531 546.410156 C 345.808594 546.839844 346.824219 547.320312 347.816406 547.851562 C 348.8125 548.378906 349.773438 548.957031 350.710938 549.582031 C 351.644531 550.207031 352.550781 550.878906 353.417969 551.589844 C 354.289062 552.304688 355.121094 553.058594 355.917969 553.855469 C 356.714844 554.648438 357.46875 555.480469 358.183594 556.351562 C 358.894531 557.222656 359.566406 558.125 360.191406 559.058594 C 360.816406 559.996094 361.394531 560.957031 361.925781 561.949219 C 362.457031 562.941406 362.9375 563.957031 363.367188 564.996094 C 363.796875 566.035156 364.175781 567.09375 364.503906 568.171875 C 364.828125 569.246094 365.101562 570.335938 365.320312 571.441406 C 365.542969 572.542969 365.707031 573.65625 365.816406 574.773438 C 365.925781 575.894531 365.980469 577.015625 365.980469 578.140625 Z M 365.980469 578.140625"/><g clip-path="url(#a)"><path transform="matrix(.68496 0 0 .68467 147.001 415.445)" fill="none" d="M 269.532097 135.628298 C 336.888556 135.628298 399.460317 145.293134 446.640064 161.536219 C 503.486155 181.105514 538.43327 210.767545 538.43327 237.628257 C 538.43327 265.618626 501.393206 297.13489 440.349811 317.360299 C 394.202282 332.650594 333.472544 340.632356 269.532097 340.632356 C 203.977741 340.632356 141.902129 333.135547 95.229937 317.189139 C 36.182542 297.009373 0.619518 265.08803 0.619518 237.628257 C 0.619518 210.990053 33.992645 181.556236 90.034633 162.015467 C 137.391168 145.504231 201.508404 135.628298 269.526394 135.628298 Z M 269.532097 135.628298" stroke="#00D8FF" stroke-width="24"/></g><g clip-path="url(#b)" fill="none" stroke="#00D8FF" stroke-width="24"><path transform="matrix(.68496 0 0 .68467 147.001 415.445)" d="M 180.738594 186.91925 C 214.39116 128.5708 254.020323 79.202546 291.659187 46.442518 C 337.008316 6.978724 380.161845 -8.482731 403.429506 4.936214 C 427.67806 18.919988 436.471867 66.753507 423.497865 129.734688 C 413.694651 177.35711 390.261607 233.948317 358.319897 289.335699 C 325.568382 346.126592 288.072089 396.156665 250.940779 428.608605 C 203.960633 469.675598 158.543069 484.537993 134.76215 470.82237 C 111.682683 457.517531 102.854658 413.900254 113.929609 355.591741 C 123.282297 306.320478 146.760964 245.849644 180.727188 186.93066 Z M 180.738594 186.91925"/><path transform="matrix(.68496 0 0 .68467 147.001 415.445)" d="M 180.818434 289.478332 C 147.080324 231.198346 124.097805 172.199488 114.511301 123.230607 C 102.968715 64.231749 111.129506 19.119674 134.374356 5.660792 C 158.600098 -8.362919 204.428267 7.902988 252.514768 50.601707 C 288.870489 82.882486 326.2014 131.434878 358.234355 186.770911 C 391.077115 243.504751 415.696355 300.980285 425.271454 349.350106 C 437.384325 410.562633 427.581111 457.329255 403.817301 471.090521 C 380.760645 484.435297 338.565196 470.303185 293.575347 431.592494 C 255.565797 398.87811 214.893012 348.334557 180.818434 289.472627 Z M 180.818434 289.478332"/></g><path fill="#00D8FF" d="M 713.074219 654 L 665.410156 581.996094 C 689.5 579.871094 711.203125 562.417969 711.203125 530.53125 C 711.203125 498.089844 688.179688 477.324219 655.875 477.324219 L 584.9375 477.324219 L 584.9375 653.867188 L 606.914062 653.867188 L 606.914062 583.71875 L 642.125 583.71875 L 687.125 653.867188 Z M 653.246094 564.53125 L 606.925781 564.53125 L 606.925781 497.035156 L 653.246094 497.035156 C 674.167969 497.035156 688.457031 510.796875 688.457031 530.65625 C 688.457031 550.515625 674.160156 564.554688 653.246094 564.554688 Z M 794.875 657.167969 C 815.796875 657.167969 832.992188 650.289062 845.703125 637.589844 L 836.171875 624.613281 C 826.101562 634.9375 811.289062 640.753906 796.730469 640.753906 C 769.207031 640.753906 752.253906 620.640625 750.667969 596.5625 L 854.164062 596.5625 L 854.164062 591.527344 C 854.164062 553.15625 831.394531 522.96875 792.738281 522.96875 C 756.207031 522.96875 729.742188 552.886719 729.742188 589.941406 C 729.742188 629.914062 757.011719 657.066406 794.863281 657.066406 Z M 834.59375 581.984375 L 750.679688 581.984375 C 751.742188 562.40625 765.222656 539.359375 792.5 539.359375 C 821.625 539.359375 834.324219 562.921875 834.59375 581.984375 Z M 986.023438 653.992188 L 986.023438 566.109375 C 986.023438 535.140625 963.53125 522.957031 936.523438 522.957031 C 915.601562 522.957031 899.199219 529.839844 885.433594 544.136719 L 894.699219 557.898438 C 906.078125 545.726562 918.53125 540.164062 933.882812 540.164062 C 952.410156 540.164062 966.183594 549.953125 966.183594 567.160156 L 966.183594 590.1875 C 955.859375 578.269531 941.300781 572.710938 923.824219 572.710938 C 902.117188 572.710938 879.070312 586.214844 879.070312 614.800781 C 879.070312 642.589844 902.09375 657.15625 923.824219 657.15625 C 941.03125 657.15625 955.601562 651.070312 966.183594 639.425781 L 966.183594 653.96875 Z M 930.972656 642.871094 C 912.445312 642.871094 899.464844 631.234375 899.464844 615.078125 C 899.464844 598.667969 912.445312 587.019531 930.972656 587.019531 C 945.003906 587.019531 958.496094 592.3125 966.183594 602.90625 L 966.183594 626.996094 C 958.507812 637.578125 945.003906 642.882812 930.972656 642.882812 Z M 1082.023438 657.167969 C 1105.316406 657.167969 1119.078125 647.636719 1128.878906 634.9375 L 1115.644531 622.765625 C 1107.175781 634.144531 1096.320312 639.433594 1083.195312 639.433594 C 1055.929688 639.433594 1039 618.257812 1039 589.941406 C 1039 561.625 1055.941406 540.714844 1083.195312 540.714844 C 1096.433594 540.714844 1107.285156 545.75 1115.644531 557.382812 L 1128.878906 545.210938 C 1119.089844 532.503906 1105.316406 522.980469 1082.023438 522.980469 C 1043.902344 522.980469 1018.222656 552.101562 1018.222656 589.953125 C 1018.222656 628.070312 1043.902344 657.078125 1082.023438 657.078125 Z M 1188.984375 657.167969 C 1200.621094 657.167969 1207.785156 653.722656 1212.816406 648.96875 L 1207 634.144531 C 1204.347656 637.050781 1199.167969 639.433594 1193.496094 639.433594 C 1184.769531 639.433594 1180.515625 632.554688 1180.515625 623.023438 L 1180.515625 543.613281 L 1206.472656 543.613281 L 1206.472656 526.148438 L 1180.515625 526.148438 L 1180.515625 491.207031 L 1160.65625 491.207031 L 1160.65625 526.148438 L 1139.476562 526.148438 L 1139.476562 543.621094 L 1160.65625 543.621094 L 1160.65625 627.273438 C 1160.65625 646.339844 1170.1875 657.191406 1188.984375 657.191406 Z M 1188.984375 657.167969" fill-rule="evenodd"/><g clip-path="url(#c)"><path fill="#6DB33F" d="M 409.679688 70.144531 C 405.65625 80.054688 400.085938 89.65625 393.589844 98.328125 C 336.039062 38.550781 241.050781 37 181.648438 94.613281 C 122.242188 152.222656 120.382812 247.308594 177.933594 306.777344 C 179.789062 308.945312 181.957031 310.804688 184.121094 312.664062 L 189.691406 317.617188 C 252.808594 370.894531 347.488281 362.839844 400.707031 299.65625 C 421.125 275.496094 433.503906 245.140625 435.667969 213.550781 C 440 176.070312 428.550781 127.753906 409.679688 70.144531 Z M 205.78125 314.210938 C 201.449219 319.785156 193.402344 320.40625 187.835938 316.070312 C 182.265625 311.734375 181.648438 303.679688 185.976562 298.105469 C 190.308594 292.53125 198.355469 291.910156 203.925781 296.246094 C 209.183594 300.582031 210.113281 308.636719 205.78125 314.210938 Z M 408.75 269.300781 C 371.929688 318.546875 292.722656 301.824219 242.289062 304.300781 C 242.289062 304.300781 233.316406 304.917969 224.34375 306.160156 C 224.34375 306.160156 227.75 304.609375 232.078125 303.0625 C 267.660156 290.671875 284.367188 288.195312 306.027344 277.042969 C 346.558594 256.292969 387.089844 210.761719 395.136719 163.683594 C 379.664062 208.902344 332.636719 247.929688 289.9375 263.726562 C 260.546875 274.566406 207.636719 285.097656 207.636719 285.097656 L 205.472656 283.859375 C 169.578125 266.203125 168.34375 188.152344 233.9375 163.0625 C 262.710938 151.914062 289.9375 158.105469 321.1875 150.671875 C 354.292969 142.929688 392.660156 118.152344 408.132812 85.628906 C 425.457031 137.972656 446.496094 219.125 408.75 269.300781 Z M 408.75 269.300781"/></g><path fill="#6DB33F" d="M 520.753906 261.867188 C 516.730469 259.390625 514.257812 255.054688 514.566406 250.40625 C 514.566406 242.972656 520.445312 236.777344 527.871094 236.777344 C 527.871094 236.777344 527.871094 236.777344 528.179688 236.777344 C 530.65625 236.777344 533.128906 237.398438 535.296875 238.636719 C 547.671875 247.308594 562.214844 251.957031 577.066406 252.574219 C 591.296875 252.574219 599.652344 246.378906 599.652344 236.777344 L 599.652344 236.160156 C 599.652344 224.699219 584.183594 220.980469 567.164062 215.71875 C 545.816406 209.523438 521.683594 200.851562 521.683594 172.972656 L 521.683594 172.355469 C 521.683594 144.789062 544.578125 128.0625 573.351562 128.0625 C 589.441406 128.371094 604.914062 132.398438 619.144531 139.832031 C 624.09375 142.308594 627.1875 146.957031 627.1875 152.53125 C 627.1875 159.964844 621 166.160156 613.574219 166.160156 L 613.265625 166.160156 C 611.101562 166.160156 608.933594 165.539062 606.769531 164.609375 C 596.25 158.726562 584.800781 155.320312 572.734375 154.699219 C 559.738281 154.699219 552.3125 160.894531 552.3125 168.949219 L 552.3125 169.566406 C 552.3125 180.40625 568.09375 184.742188 585.109375 190.320312 C 606.460938 196.824219 630.285156 206.734375 630.285156 232.753906 L 630.285156 233.371094 C 630.285156 264.035156 606.460938 279.210938 576.445312 279.210938 C 556.644531 278.902344 537.152344 273.015625 520.753906 261.867188 Z M 520.753906 261.867188"/><path fill="#6DB33F" d="M 642.660156 145.097656 C 642.351562 136.117188 649.777344 128.683594 658.75 128.371094 L 659.058594 128.371094 C 668.339844 128.371094 675.765625 135.804688 675.765625 145.097656 L 675.765625 155.007812 C 686.59375 139.832031 701.753906 127.753906 725.269531 127.753906 C 759.304688 127.753906 792.71875 154.699219 792.71875 203.328125 L 792.71875 203.945312 C 792.71875 252.265625 759.613281 279.523438 725.269531 279.523438 C 701.136719 279.523438 685.976562 267.441406 675.765625 253.8125 L 675.765625 305.230469 C 675.765625 314.523438 668.339844 321.957031 659.058594 321.957031 C 650.085938 321.957031 642.660156 314.523438 642.660156 305.539062 Z M 759.304688 203.945312 L 759.304688 203.328125 C 759.304688 175.140625 740.429688 156.867188 717.84375 156.867188 C 695.257812 156.867188 675.457031 175.761719 675.457031 203.328125 L 675.457031 203.945312 C 675.457031 231.824219 695.257812 250.40625 717.84375 250.40625 C 740.429688 250.40625 759.304688 232.753906 759.304688 203.945312 Z M 759.304688 203.945312"/><path fill="#6DB33F" d="M 805.714844 145.097656 C 805.40625 136.117188 812.832031 128.683594 821.804688 128.371094 L 822.113281 128.371094 C 831.394531 128.371094 838.820312 135.804688 838.820312 145.097656 L 838.820312 153.152344 C 840.367188 140.761719 860.789062 128.371094 875.332031 128.371094 C 883.683594 127.753906 891.109375 133.949219 891.730469 142.308594 C 891.730469 143.238281 891.730469 143.859375 891.730469 144.789062 C 891.730469 152.839844 886.160156 159.65625 878.425781 160.894531 C 854.601562 164.921875 838.511719 185.671875 838.511719 214.476562 L 838.511719 262.488281 C 838.511719 271.777344 831.085938 278.902344 821.804688 278.902344 C 812.832031 278.902344 805.40625 271.777344 805.40625 262.796875 C 805.40625 262.796875 805.40625 262.796875 805.40625 262.488281 Z M 805.714844 145.097656"/><path fill="#6DB33F" d="M 905.035156 145.40625 C 904.726562 136.425781 912.152344 128.992188 921.125 128.683594 L 921.433594 128.683594 C 930.714844 128.683594 938.140625 136.117188 938.140625 145.40625 L 938.140625 262.796875 C 938.140625 272.089844 930.714844 279.210938 921.433594 279.210938 C 912.152344 279.210938 905.035156 271.777344 905.035156 262.796875 Z M 905.035156 145.40625"/><path fill="#6DB33F" d="M 955.15625 145.40625 C 954.847656 136.425781 962.273438 128.992188 971.246094 128.683594 L 971.554688 128.683594 C 980.839844 128.683594 988.265625 136.117188 988.265625 145.40625 L 988.265625 152.222656 C 998.164062 136.734375 1015.492188 127.753906 1033.746094 128.371094 C 1066.542969 128.371094 1085.417969 150.363281 1085.417969 184.125 L 1085.417969 262.488281 C 1085.726562 271.46875 1078.609375 278.59375 1069.636719 278.902344 C 1069.328125 278.902344 1069.328125 278.902344 1069.019531 278.902344 C 1060.046875 279.210938 1052.621094 271.777344 1052.3125 262.796875 L 1052.3125 194.34375 C 1052.3125 171.734375 1041.171875 158.726562 1021.0625 158.726562 C 1001.878906 158.726562 988.265625 172.355469 988.265625 194.964844 L 988.265625 262.796875 C 988.265625 272.089844 980.839844 279.523438 971.554688 279.523438 C 962.273438 279.523438 954.847656 272.089844 954.847656 262.796875 Z M 955.15625 145.40625"/><path fill="#6DB33F" d="M 1232.074219 128.0625 C 1222.792969 128.0625 1215.367188 135.496094 1215.367188 144.789062 L 1215.367188 154.699219 C 1204.539062 139.523438 1189.378906 127.441406 1165.863281 127.441406 C 1131.828125 127.441406 1098.414062 154.390625 1098.414062 203.019531 L 1098.414062 203.636719 C 1098.414062 251.957031 1131.519531 279.210938 1165.863281 279.210938 C 1189.996094 279.210938 1205.15625 267.132812 1215.367188 253.8125 C 1213.820312 280.140625 1197.730469 293.769531 1169.574219 293.769531 C 1154.105469 293.769531 1138.636719 290.050781 1125.019531 282.308594 C 1123.164062 281.378906 1121.308594 281.070312 1119.140625 281.070312 C 1111.40625 281.070312 1105.21875 286.957031 1104.910156 294.699219 C 1104.910156 300.582031 1108.621094 306.160156 1114.191406 308.015625 C 1131.828125 316.691406 1151.011719 321.027344 1170.503906 321.027344 C 1196.804688 321.027344 1217.222656 314.832031 1230.21875 301.511719 C 1242.285156 289.433594 1248.78125 271.160156 1248.78125 246.691406 L 1248.78125 145.097656 C 1249.09375 135.804688 1241.667969 128.371094 1232.382812 128.0625 C 1232.382812 128.0625 1232.074219 128.0625 1232.074219 128.0625 Z M 1173.597656 250.40625 C 1150.703125 250.40625 1132.136719 232.441406 1132.136719 203.636719 L 1132.136719 203.019531 C 1132.136719 174.832031 1151.011719 156.558594 1173.597656 156.558594 C 1196.183594 156.558594 1215.984375 175.453125 1215.984375 203.019531 L 1215.984375 203.636719 C 1216.296875 231.511719 1196.492188 250.40625 1173.597656 250.40625 Z M 1173.597656 250.40625"/><path fill="#6DB33F" d="M 938.449219 88.417969 C 938.449219 97.710938 931.023438 105.140625 921.742188 105.140625 C 912.460938 105.140625 905.035156 97.710938 905.035156 88.417969 C 905.035156 79.125 912.460938 71.691406 921.742188 71.691406 C 930.714844 71.382812 938.140625 78.816406 938.449219 87.796875 C 938.449219 88.105469 938.449219 88.105469 938.449219 88.417969 Z M 938.449219 88.417969"/><path fill="#6DB33F" d="M 1286.839844 163.0625 C 1277.558594 163.0625 1269.824219 155.320312 1269.824219 146.027344 C 1269.824219 136.734375 1277.558594 128.992188 1286.839844 128.992188 C 1296.121094 128.992188 1303.855469 136.734375 1303.855469 146.027344 C 1303.855469 155.320312 1296.121094 163.0625 1286.839844 163.0625 Z M 1286.839844 131.46875 C 1278.796875 131.46875 1272.296875 137.972656 1272.296875 146.027344 C 1272.296875 154.082031 1278.796875 160.585938 1286.839844 160.585938 C 1294.882812 160.585938 1301.382812 154.082031 1301.382812 146.027344 C 1301.382812 137.972656 1295.195312 131.46875 1287.148438 131.46875 Z M 1291.480469 155.628906 L 1286.53125 147.886719 L 1283.125 147.886719 L 1283.125 155.628906 L 1280.34375 155.628906 L 1280.34375 136.117188 L 1288.386719 136.117188 C 1291.789062 135.804688 1294.574219 138.59375 1294.882812 142 C 1294.882812 144.789062 1292.71875 147.265625 1289.933594 147.886719 L 1295.195312 155.628906 Z M 1288.078125 138.59375 L 1283.125 138.59375 L 1283.125 145.40625 L 1288.386719 145.40625 C 1290.242188 145.40625 1291.789062 143.859375 1291.789062 142 C 1291.789062 140.140625 1290.242188 138.59375 1288.078125 138.59375 Z M 1288.078125 138.59375"/><path fill="#6DB33F" d="M 400.707031 299.65625 C 421.125 275.496094 433.503906 245.140625 435.667969 213.550781"/><path fill="#FFF" d="M 408.75 269.300781 C 371.929688 318.546875 292.722656 301.824219 242.289062 304.300781 C 242.289062 304.300781 233.316406 304.917969 224.34375 306.160156 C 224.34375 306.160156 227.75 304.609375 232.078125 303.0625 C 267.660156 290.671875 284.367188 288.195312 306.027344 277.042969 C 346.558594 256.292969 387.089844 210.761719 395.136719 163.683594 C 379.664062 208.902344 332.636719 247.929688 289.9375 263.726562 C 260.546875 274.566406 207.636719 285.097656 207.636719 285.097656 L 205.472656 283.859375 C 169.578125 266.203125 168.34375 188.152344 233.9375 163.0625 C 262.710938 151.914062 289.9375 158.105469 321.1875 150.671875 C 354.292969 142.929688 392.660156 118.152344 408.132812 85.628906 C 425.457031 137.972656 446.496094 219.125 408.75 269.300781 Z M 408.75 269.300781"/><path fill="#FFF" d="M 205.78125 314.210938 C 201.449219 319.785156 193.402344 320.40625 187.835938 316.070312 C 182.265625 311.734375 181.648438 303.679688 185.976562 298.105469 C 190.308594 292.53125 198.355469 291.910156 203.925781 296.246094 C 209.183594 300.582031 210.113281 308.636719 205.78125 314.210938 Z M 205.78125 314.210938"/></svg>